<svg width="26" height="25" viewBox="0 0 26 25" fill="none" xmlns="http://www.w3.org/2000/svg">
<path fill-rule="evenodd" clip-rule="evenodd" d="M0 12.5C0 5.59644 5.8203 0 13 0C20.1797 0 26 5.59644 26 12.5C26 19.4036 20.1797 25 13 25C5.8203 25 0 19.4036 0 12.5ZM13.0007 5.83333C11.1177 5.83333 10.8813 5.84125 10.1418 5.87361C9.40366 5.90611 8.89983 6.01847 8.45898 6.18334C8.00296 6.35362 7.61614 6.5814 7.23076 6.95209C6.84509 7.32265 6.60819 7.6946 6.43053 8.13294C6.25864 8.55697 6.14163 9.04156 6.10841 9.75101C6.07533 10.4621 6.06667 10.6895 6.06667 12.5001C6.06667 14.3106 6.07504 14.5372 6.10856 15.2483C6.1425 15.958 6.25936 16.4425 6.43067 16.8664C6.60791 17.3048 6.8448 17.6768 7.23032 18.0473C7.61556 18.4182 8.00239 18.6465 8.45811 18.8168C8.89925 18.9817 9.40322 19.094 10.1412 19.1265C10.8808 19.1589 11.1169 19.1668 12.9998 19.1668C14.8829 19.1668 15.1185 19.1589 15.8581 19.1265C16.5962 19.094 17.1006 18.9817 17.5417 18.8168C17.9976 18.6465 18.3839 18.4182 18.7691 18.0473C19.1548 17.6768 19.3917 17.3048 19.5693 16.8665C19.7398 16.4425 19.8568 15.9579 19.8914 15.2484C19.9247 14.5373 19.9333 14.3106 19.9333 12.5001C19.9333 10.6895 19.9247 10.4623 19.8914 9.75115C19.8568 9.04142 19.7398 8.55697 19.5693 8.13308C19.3917 7.6946 19.1548 7.32265 18.7691 6.95209C18.3834 6.58126 17.9978 6.35348 17.5413 6.18334C17.0993 6.01847 16.5952 5.90611 15.8571 5.87361C15.1175 5.84125 14.8821 5.83333 12.9985 5.83333H13.0007Z" fill="white"/>
<path fill-rule="evenodd" clip-rule="evenodd" d="M12.3787 7.03473C12.5633 7.03446 12.7692 7.03473 13.0007 7.03473C14.8519 7.03473 15.0713 7.04112 15.8023 7.07307C16.4783 7.10279 16.8452 7.2114 17.0896 7.30265C17.4132 7.42349 17.6439 7.56793 17.8864 7.80127C18.1291 8.03461 18.2793 8.25683 18.4052 8.56794C18.5001 8.80267 18.6132 9.15545 18.644 9.80546C18.6772 10.5082 18.6845 10.7194 18.6845 12.4985C18.6845 14.2777 18.6772 14.4888 18.644 15.1916C18.6131 15.8416 18.5001 16.1944 18.4052 16.4291C18.2796 16.7403 18.1291 16.9618 17.8864 17.195C17.6437 17.4283 17.4133 17.5728 17.0896 17.6936C16.8455 17.7853 16.4783 17.8936 15.8023 17.9233C15.0714 17.9553 14.8519 17.9622 13.0007 17.9622C11.1493 17.9622 10.9299 17.9553 10.199 17.9233C9.52297 17.8933 9.15608 17.7847 8.91153 17.6935C8.58797 17.5726 8.35686 17.4282 8.11419 17.1948C7.87152 16.9615 7.7213 16.7398 7.59534 16.4286C7.50044 16.1939 7.38734 15.8411 7.35657 15.1911C7.32335 14.4883 7.3167 14.2772 7.3167 12.4969C7.3167 10.7166 7.32335 10.5066 7.35657 9.80379C7.38748 9.15378 7.50044 8.801 7.59534 8.566C7.72101 8.25489 7.87152 8.03266 8.11419 7.79933C8.35686 7.56599 8.58797 7.42154 8.91153 7.30043C9.15593 7.20876 9.52297 7.10043 10.199 7.07057C10.8386 7.04279 11.0865 7.03446 12.3787 7.03307V7.03473ZM16.7016 8.14169C16.2423 8.14169 15.8696 8.49961 15.8696 8.94142C15.8696 9.38309 16.2423 9.74143 16.7016 9.74143C17.161 9.74143 17.5337 9.38309 17.5337 8.94142C17.5337 8.49975 17.161 8.14169 16.7016 8.14169ZM13.0007 9.07642C11.0343 9.07642 9.44006 10.6094 9.44006 12.5001C9.44006 14.3908 11.0343 15.923 13.0007 15.923C14.967 15.923 16.5607 14.3908 16.5607 12.5001C16.5607 10.6094 14.967 9.07642 13.0007 9.07642Z" fill="white"/>
<path fill-rule="evenodd" clip-rule="evenodd" d="M13.0007 10.2778C14.277 10.2778 15.3118 11.2727 15.3118 12.5001C15.3118 13.7273 14.277 14.7223 13.0007 14.7223C11.7242 14.7223 10.6895 13.7273 10.6895 12.5001C10.6895 11.2727 11.7242 10.2778 13.0007 10.2778Z" fill="white"/>
</svg>
