<svg width="26" height="25" viewBox="0 0 26 25" fill="none" xmlns="http://www.w3.org/2000/svg">
<path fill-rule="evenodd" clip-rule="evenodd" d="M0 12.5C0 5.59644 5.8203 0 13 0C20.1797 0 26 5.59644 26 12.5C26 19.4036 20.1797 25 13 25C5.8203 25 0 19.4036 0 12.5ZM21.2333 12.0436C21.2333 8.61925 17.6372 5.83333 13.2166 5.83333C8.79659 5.83333 5.2 8.61925 5.2 12.0436C5.2 15.1135 8.052 17.6845 11.9045 18.1707C12.1656 18.2244 12.5209 18.335 12.6108 18.548C12.6916 18.7415 12.6636 19.0446 12.6366 19.24C12.6366 19.24 12.5425 19.7801 12.5223 19.8951C12.4874 20.0886 12.3612 20.6518 13.2166 20.3076C14.0723 19.9634 17.8335 17.7126 19.5153 15.8645C20.6772 14.6483 21.2333 13.4141 21.2333 12.0436Z" fill="white"/>
<path fill-rule="evenodd" clip-rule="evenodd" d="M11.5453 10.4167H10.9882C10.9028 10.4167 10.8333 10.4856 10.8333 10.5703V14.0131C10.8333 14.0979 10.9028 14.1667 10.9882 14.1667H11.5453C11.6307 14.1667 11.7 14.0979 11.7 14.0131V10.5703C11.7 10.4856 11.6307 10.4167 11.5453 10.4167Z" fill="white"/>
<path fill-rule="evenodd" clip-rule="evenodd" d="M15.4371 10.4167H14.8507C14.7607 10.4167 14.6878 10.4856 14.6878 10.5703V12.6157L13.0183 10.485C13.0144 10.4795 13.0101 10.4744 13.0056 10.4694L13.0045 10.4685C13.0013 10.465 12.9981 10.462 12.9947 10.4589C12.9937 10.458 12.9928 10.4573 12.9917 10.4564C12.9889 10.4539 12.9861 10.4517 12.983 10.4495C12.9817 10.4483 12.9803 10.4474 12.9788 10.4464C12.976 10.4445 12.9732 10.4426 12.9703 10.4409C12.9687 10.4398 12.9671 10.4389 12.9654 10.4382C12.9625 10.4365 12.9596 10.4348 12.9567 10.4335C12.955 10.4327 12.9534 10.4318 12.9516 10.4312C12.9485 10.4298 12.9455 10.4285 12.9423 10.4274C12.9404 10.4268 12.9388 10.4262 12.937 10.4256C12.9338 10.4245 12.9306 10.4235 12.9272 10.4227C12.9255 10.4221 12.9235 10.4218 12.9216 10.4212C12.9184 10.4206 12.9154 10.4198 12.9123 10.4192C12.9101 10.4189 12.9077 10.4186 12.9054 10.4185C12.9025 10.4179 12.8997 10.4177 12.8968 10.4174C12.8941 10.4171 12.8913 10.4171 12.8884 10.417C12.8864 10.417 12.8848 10.4167 12.8827 10.4167H12.2963C12.2064 10.4167 12.1333 10.4856 12.1333 10.5703V14.0131C12.1333 14.0979 12.2064 14.1667 12.2963 14.1667H12.8827C12.9728 14.1667 13.0457 14.0979 13.0457 14.0131V11.9683L14.7173 14.1017C14.7288 14.1171 14.7431 14.1297 14.7587 14.1397C14.7591 14.14 14.7598 14.1405 14.7603 14.1409C14.7636 14.1429 14.767 14.1449 14.7704 14.1467C14.772 14.1476 14.7734 14.1482 14.775 14.1489C14.7774 14.1503 14.7801 14.1515 14.7827 14.1526C14.7854 14.1536 14.7878 14.1547 14.7907 14.1558C14.7923 14.1564 14.7939 14.157 14.7955 14.1574C14.7994 14.1588 14.8029 14.1599 14.8066 14.1609C14.8074 14.1609 14.8082 14.1612 14.809 14.1614C14.8223 14.1647 14.8362 14.1667 14.8507 14.1667H15.4371C15.5272 14.1667 15.6 14.0979 15.6 14.0131V10.5703C15.6 10.4856 15.5272 10.4167 15.4371 10.4167Z" fill="white"/>
<path fill-rule="evenodd" clip-rule="evenodd" d="M10.2416 13.3046H8.68884V10.5705C8.68884 10.4856 8.61778 10.4167 8.53032 10.4167H7.95868C7.87106 10.4167 7.8 10.4856 7.8 10.5705V14.0126C7.8 14.054 7.81702 14.0917 7.84436 14.1193C7.84498 14.12 7.84561 14.1208 7.84654 14.1215C7.84732 14.1223 7.8481 14.1229 7.84889 14.1237C7.87747 14.1503 7.91589 14.1667 7.95853 14.1667H10.2416C10.3292 14.1667 10.4 14.0976 10.4 14.0126V13.4584C10.4 13.3735 10.3292 13.3046 10.2416 13.3046Z" fill="white"/>
<path fill-rule="evenodd" clip-rule="evenodd" d="M18.475 11.2788C18.5626 11.2788 18.6333 11.21 18.6333 11.1249V10.5707C18.6333 10.4857 18.5626 10.4167 18.475 10.4167H16.192C16.1492 10.4167 16.1103 10.4333 16.0818 10.4601C16.0811 10.4607 16.0803 10.4612 16.0799 10.4618C16.0789 10.4627 16.0782 10.4636 16.0774 10.4645C16.0502 10.4921 16.0333 10.5294 16.0333 10.5705V14.0128C16.0333 14.0541 16.0504 14.0917 16.0777 14.1193C16.0783 14.12 16.0791 14.1209 16.0799 14.1215C16.0805 14.1223 16.0814 14.123 16.0822 14.1237C16.1106 14.1502 16.1492 14.1667 16.1917 14.1667H18.475C18.5626 14.1667 18.6333 14.0976 18.6333 14.0128V13.4584C18.6333 13.3736 18.5626 13.3046 18.475 13.3046H16.9223V12.7226H18.475C18.5626 12.7226 18.6333 12.6537 18.6333 12.5688V12.0146C18.6333 11.9296 18.5626 11.8605 18.475 11.8605H16.9223V11.2788H18.475Z" fill="white"/>
</svg>
