<svg width="27" height="25" viewBox="0 0 27 25" fill="none" xmlns="http://www.w3.org/2000/svg">
<path fill-rule="evenodd" clip-rule="evenodd" d="M13.0427 0C5.85502 0 0.0281982 5.57825 0.0281982 12.4593C0.0281982 19.3404 5.85502 24.9187 13.0427 24.9187C20.2304 24.9187 26.0573 19.3404 26.0573 12.4593C26.0573 5.57825 20.2304 0 13.0427 0Z" fill="white"/>
<path fill-rule="evenodd" clip-rule="evenodd" d="M13.0182 13.516L7.18358 8.4724V19.1044H6.20879C5.66569 19.1044 5.23401 18.5903 5.23401 17.9435V6.18651C5.23401 6.1373 5.23655 6.09111 5.24136 6.04786C5.25907 5.86341 5.31556 5.68291 5.41506 5.52318C5.73533 5.00912 6.36199 4.89302 6.8076 5.2744L13.0322 10.6638L19.2985 5.20814C19.7302 4.82668 20.3429 4.94278 20.6632 5.47343C20.8334 5.74669 20.8856 6.0808 20.8302 6.39119V17.9601C20.8302 18.5903 20.3986 19.1044 19.8555 19.1044H18.8807V8.44706L13.0182 13.516Z" fill="#171717"/>
</svg>
