<svg width="27" height="25" viewBox="0 0 27 25" fill="none" xmlns="http://www.w3.org/2000/svg">
<path fill-rule="evenodd" clip-rule="evenodd" d="M6.13069 22.9875L1.02124 24.228L2.38503 19.617L2.06405 19.1443C0.712682 17.1548 -0.00104592 14.8555 1.15042e-06 12.4944C0.00295471 5.60498 6.05906 0 13.5056 0C17.1114 0.00115718 20.5009 1.30252 23.0497 3.66442C25.5985 6.02633 27.0014 9.16569 27 12.5045C26.997 19.3945 20.941 25 13.5003 25H13.4948C11.0723 24.9991 8.69637 24.3967 6.62365 23.2583L6.13069 22.9875ZM21.683 16.0804C21.5816 15.9237 21.3111 15.8297 20.9052 15.6416C20.4994 15.4535 18.5041 14.5449 18.132 14.4194C17.7601 14.2941 17.4894 14.2315 17.2189 14.6074C16.9484 14.9834 16.1706 15.8297 15.9339 16.0804C15.6971 16.331 15.4604 16.3625 15.0547 16.1744C14.6489 15.9863 13.3412 15.5897 11.791 14.3099C10.5845 13.3138 9.77001 12.0837 9.53327 11.7077C9.29654 11.3316 9.50804 11.1284 9.71121 10.9411C9.89379 10.7727 10.1171 10.5022 10.32 10.2829C10.5229 10.0636 10.5905 9.90685 10.7258 9.65633C10.8611 9.40551 10.7935 9.18623 10.692 8.99819C10.5905 8.81015 9.77889 6.96116 9.4407 6.20901C9.11124 5.47653 8.77668 5.57576 8.52758 5.56419C8.29113 5.55319 8.02028 5.55088 7.74975 5.55088C7.47921 5.55088 7.03951 5.6449 6.66752 6.02097C6.29553 6.39705 5.24711 7.30585 5.24711 9.1547C5.24711 11.0037 6.70132 12.7899 6.90426 13.0406C7.10716 13.2914 9.76598 17.0855 13.8372 18.7126C14.8054 19.0997 15.5613 19.3308 16.1508 19.5039C17.123 19.7899 18.0078 19.7495 18.7069 19.6528C19.4867 19.5449 21.1081 18.7441 21.4464 17.8667C21.7844 16.9891 21.7844 16.237 21.683 16.0804Z" fill="white"/>
</svg>
