<svg width="544" height="444" viewBox="0 0 544 444" fill="none" xmlns="http://www.w3.org/2000/svg">
<g clip-path="url(#clip0)">
<path opacity="0.1" d="M532.052 442.343C536.649 437.745 531.329 424.966 520.168 413.802C509.008 402.637 496.234 397.315 491.637 401.913C487.04 406.512 492.36 419.291 503.521 430.455C514.681 441.62 527.455 446.942 532.052 442.343Z" fill="#6C63FF"/>
<path d="M513.867 423.995C517.357 423.995 520.186 420.289 520.186 415.718C520.186 411.147 517.357 407.441 513.867 407.441C510.378 407.441 507.549 411.147 507.549 415.718C507.549 420.289 510.378 423.995 513.867 423.995Z" fill="#3F3D56"/>
<path d="M513.867 413.88C517.357 413.88 520.186 410.174 520.186 405.603C520.186 401.032 517.357 397.327 513.867 397.327C510.378 397.327 507.549 401.032 507.549 405.603C507.549 410.174 510.378 413.88 513.867 413.88Z" fill="#3F3D56"/>
<path d="M513.867 403.765C517.357 403.765 520.186 400.06 520.186 395.489C520.186 390.918 517.357 387.212 513.867 387.212C510.378 387.212 507.549 390.918 507.549 395.489C507.549 400.06 510.378 403.765 513.867 403.765Z" fill="#3F3D56"/>
<path d="M513.867 393.651C517.357 393.651 520.186 389.945 520.186 385.374C520.186 380.803 517.357 377.098 513.867 377.098C510.378 377.098 507.549 380.803 507.549 385.374C507.549 389.945 510.378 393.651 513.867 393.651Z" fill="#3F3D56"/>
<path d="M513.867 383.536C517.357 383.536 520.186 379.831 520.186 375.26C520.186 370.688 517.357 366.983 513.867 366.983C510.378 366.983 507.549 370.688 507.549 375.26C507.549 379.831 510.378 383.536 513.867 383.536Z" fill="#3F3D56"/>
<path d="M513.867 373.422C517.357 373.422 520.186 369.716 520.186 365.145C520.186 360.574 517.357 356.868 513.867 356.868C510.378 356.868 507.549 360.574 507.549 365.145C507.549 369.716 510.378 373.422 513.867 373.422Z" fill="#3F3D56"/>
<path d="M513.867 363.307C517.357 363.307 520.186 359.601 520.186 355.03C520.186 350.459 517.357 346.754 513.867 346.754C510.378 346.754 507.549 350.459 507.549 355.03C507.549 359.601 510.378 363.307 513.867 363.307Z" fill="#3F3D56"/>
<path d="M537.522 285.813C538.387 284.714 539.174 283.557 539.878 282.349L523.272 279.621L541.232 279.751C542.955 276.002 543.896 271.94 543.997 267.815C544.098 263.69 543.358 259.587 541.821 255.758L517.73 268.264L539.937 251.923C537.857 248.321 535.057 245.186 531.713 242.714C528.368 240.242 524.55 238.486 520.497 237.555C516.445 236.624 512.243 236.538 508.156 237.303C504.069 238.068 500.183 239.667 496.74 242.001C493.298 244.334 490.373 247.352 488.148 250.866C485.922 254.381 484.445 258.316 483.807 262.426C483.169 266.537 483.385 270.735 484.44 274.758C485.495 278.782 487.368 282.545 489.941 285.813C488.595 287.523 487.438 289.373 486.491 291.332L508.043 302.525L485.077 294.808C483.465 299.58 483.067 304.679 483.919 309.644C484.771 314.609 486.847 319.283 489.959 323.243C486.447 327.71 484.263 333.074 483.655 338.724C483.048 344.374 484.041 350.08 486.523 355.192C489.005 360.303 492.874 364.613 497.689 367.628C502.504 370.643 508.069 372.242 513.75 372.242C519.43 372.242 524.995 370.643 529.81 367.628C534.625 364.613 538.494 360.303 540.976 355.192C543.458 350.08 544.452 344.374 543.844 338.724C543.236 333.074 541.052 327.71 537.54 323.243C541.736 317.906 544.017 311.312 544.017 304.522C544.017 297.732 541.736 291.138 537.54 285.801L537.522 285.813Z" fill="white"/>
<path opacity="0.1" d="M483.464 304.534C483.453 311.326 485.735 317.923 489.941 323.255C486.43 327.721 484.245 333.086 483.638 338.736C483.03 344.385 484.024 350.092 486.506 355.204C488.987 360.315 492.857 364.624 497.671 367.64C502.486 370.655 508.052 372.254 513.732 372.254C519.412 372.254 524.978 370.655 529.792 367.64C534.607 364.624 538.477 360.315 540.958 355.204C543.44 350.092 544.434 344.385 543.826 338.736C543.219 333.086 541.034 327.721 537.522 323.255C541.58 318.106 483.464 301.135 483.464 304.534Z" fill="black"/>
<path d="M498.757 0V424.142L355.072 404.113L180.407 439.759L178.999 440.047L40.0256 401.757V32.9888L184.299 0L342.117 32.9888L348.118 31.7223L498.757 0Z" fill="#444053"/>
<path d="M474.613 23.1629V402.658L346.057 384.738L189.776 416.631L188.516 416.884L64.1694 382.629V52.6761L193.262 23.1629L334.462 52.6761L339.832 51.545L474.613 23.1629Z" fill="white"/>
<path opacity="0.1" d="M355.072 404.113L180.407 439.759L184.299 0L342.117 32.9888L348.118 31.7223L355.072 404.113Z" fill="black"/>
<g opacity="0.3">
<path opacity="0.3" d="M337.63 81.2939L337.701 204.707H388.932V154.046H476.674L486.98 140.827" stroke="#444053" stroke-width="3" stroke-miterlimit="10"/>
<path opacity="0.3" d="M52.392 120.468H242.892L254.67 115.166H259.381V234.162H341.823L345.356 244.765V298.372H408.954V364.644" stroke="#444053" stroke-width="3" stroke-miterlimit="10"/>
<path opacity="0.3" d="M284.543 364.644V234.162" stroke="#444053" stroke-width="3" stroke-miterlimit="10"/>
<path opacity="0.3" d="M486.98 329.688H284.543" stroke="#444053" stroke-width="3" stroke-miterlimit="10"/>
<path opacity="0.3" d="M436.278 81.2939V364.644" stroke="#444053" stroke-width="3" stroke-miterlimit="10"/>
<path opacity="0.3" d="M51.8031 304.64H486.98" stroke="#444053" stroke-width="3" stroke-miterlimit="10"/>
<path opacity="0.3" d="M104.766 364.644V81.2939" stroke="#444053" stroke-width="3" stroke-miterlimit="10"/>
<path opacity="0.3" d="M205.923 81.2939V364.644" stroke="#444053" stroke-width="3" stroke-miterlimit="10"/>
<path opacity="0.3" d="M52.392 152.868L388.932 154.046" stroke="#444053" stroke-width="3" stroke-miterlimit="10"/>
<path opacity="0.3" d="M150.339 81.8064V364.644" stroke="#444053" stroke-width="3" stroke-miterlimit="10"/>
<path opacity="0.3" d="M51.8031 218.445H205.923L284.543 304.64" stroke="#444053" stroke-width="3" stroke-miterlimit="10"/>
<path opacity="0.3" d="M301.573 81.2939V234.162" stroke="#444053" stroke-width="3" stroke-miterlimit="10"/>
<path opacity="0.3" d="M284.543 261.542H486.98" stroke="#444053" stroke-width="3" stroke-miterlimit="10"/>
</g>
<path d="M345.061 260.376H285.585V234.456L341.823 234.162L345.356 244.176L345.061 260.376Z" fill="#6C63FF"/>
<path d="M315.618 126.064C306.984 126.064 298.704 129.495 292.599 135.602C286.495 141.709 283.065 149.992 283.065 158.629C283.065 176.614 315.618 235.045 315.618 235.045C315.618 235.045 348.171 176.637 348.171 158.629C348.171 149.992 344.741 141.709 338.636 135.602C332.531 129.495 324.251 126.064 315.618 126.064ZM315.618 172.52C312.785 172.52 310.016 171.679 307.661 170.105C305.306 168.531 303.471 166.294 302.387 163.676C301.303 161.058 301.019 158.177 301.572 155.398C302.124 152.619 303.488 150.066 305.491 148.063C307.494 146.059 310.046 144.695 312.824 144.142C315.602 143.589 318.481 143.873 321.098 144.957C323.715 146.041 325.952 147.878 327.526 150.234C329.099 152.59 329.939 155.36 329.939 158.193C329.938 161.992 328.428 165.634 325.742 168.32C323.057 171.005 319.415 172.514 315.618 172.514V172.52Z" fill="#6C63FF"/>
<path opacity="0.1" d="M315.618 126.064C306.984 126.064 298.704 129.495 292.599 135.602C286.495 141.709 283.065 149.992 283.065 158.629C283.065 176.614 315.618 235.045 315.618 235.045C315.618 235.045 348.171 176.637 348.171 158.629C348.171 149.992 344.741 141.709 338.636 135.602C332.531 129.495 324.251 126.064 315.618 126.064ZM315.618 172.52C312.785 172.52 310.016 171.679 307.661 170.105C305.306 168.531 303.471 166.294 302.387 163.676C301.303 161.058 301.019 158.177 301.572 155.398C302.124 152.619 303.488 150.066 305.491 148.063C307.494 146.059 310.046 144.695 312.824 144.142C315.602 143.589 318.481 143.873 321.098 144.957C323.715 146.041 325.952 147.878 327.526 150.234C329.099 152.59 329.939 155.36 329.939 158.193C329.938 161.992 328.428 165.634 325.742 168.32C323.057 171.005 319.415 172.514 315.618 172.514V172.52Z" fill="black"/>
<path d="M315.618 130.777C306.984 130.777 298.704 134.208 292.599 140.315C286.495 146.422 283.065 154.705 283.065 163.342C283.065 181.327 315.618 239.758 315.618 239.758C315.618 239.758 348.171 181.35 348.171 163.342C348.171 154.705 344.741 146.422 338.636 140.315C332.531 134.208 324.251 130.777 315.618 130.777ZM315.618 177.232C312.785 177.232 310.016 176.392 307.661 174.818C305.306 173.244 303.471 171.006 302.387 168.388C301.303 165.771 301.019 162.89 301.572 160.111C302.124 157.332 303.488 154.779 305.491 152.775C307.494 150.772 310.046 149.407 312.824 148.855C315.602 148.302 318.481 148.585 321.098 149.67C323.715 150.754 325.952 152.59 327.526 154.946C329.099 157.302 329.939 160.072 329.939 162.906C329.938 166.704 328.428 170.347 325.742 173.032C323.057 175.718 319.415 177.227 315.618 177.227V177.232Z" fill="#6C63FF"/>
<path opacity="0.1" d="M304.584 439.502C314.576 435.198 321.238 428.37 319.466 424.253C317.693 420.135 308.156 420.287 298.165 424.591C288.173 428.896 281.51 435.723 283.283 439.841C285.056 443.959 294.593 443.807 304.584 439.502Z" fill="#6C63FF"/>
<path d="M301.143 434.539C303.55 434.539 305.501 431.986 305.501 428.837C305.501 425.688 303.55 423.135 301.143 423.135C298.737 423.135 296.786 425.688 296.786 428.837C296.786 431.986 298.737 434.539 301.143 434.539Z" fill="#3F3D56"/>
<path d="M301.143 427.564C303.55 427.564 305.501 425.011 305.501 421.862C305.501 418.713 303.55 416.16 301.143 416.16C298.737 416.16 296.786 418.713 296.786 421.862C296.786 425.011 298.737 427.564 301.143 427.564Z" fill="#3F3D56"/>
<path d="M301.143 420.596C303.55 420.596 305.501 418.043 305.501 414.893C305.501 411.744 303.55 409.191 301.143 409.191C298.737 409.191 296.786 411.744 296.786 414.893C296.786 418.043 298.737 420.596 301.143 420.596Z" fill="#3F3D56"/>
<path d="M301.143 413.627C303.55 413.627 305.501 411.074 305.501 407.924C305.501 404.775 303.55 402.222 301.143 402.222C298.737 402.222 296.786 404.775 296.786 407.924C296.786 411.074 298.737 413.627 301.143 413.627Z" fill="#3F3D56"/>
<path d="M301.143 406.652C303.55 406.652 305.501 404.099 305.501 400.95C305.501 397.8 303.55 395.247 301.143 395.247C298.737 395.247 296.786 397.8 296.786 400.95C296.786 404.099 298.737 406.652 301.143 406.652Z" fill="#3F3D56"/>
<path d="M301.143 399.683C303.55 399.683 305.501 397.13 305.501 393.981C305.501 390.831 303.55 388.278 301.143 388.278C298.737 388.278 296.786 390.831 296.786 393.981C296.786 397.13 298.737 399.683 301.143 399.683Z" fill="#3F3D56"/>
<path d="M301.143 392.714C303.55 392.714 305.501 390.161 305.501 387.012C305.501 383.862 303.55 381.309 301.143 381.309C298.737 381.309 296.786 383.862 296.786 387.012C296.786 390.161 298.737 392.714 301.143 392.714Z" fill="#3F3D56"/>
<path d="M284.837 339.302C284.243 338.554 283.7 337.766 283.212 336.945L294.66 335.06L282.294 335.155C281.108 332.57 280.461 329.771 280.392 326.928C280.323 324.085 280.834 321.258 281.893 318.619L298.499 327.208L283.189 315.944C284.623 313.463 286.552 311.303 288.857 309.6C291.162 307.898 293.793 306.688 296.586 306.047C299.378 305.406 302.273 305.347 305.09 305.874C307.906 306.402 310.584 307.504 312.956 309.112C315.328 310.72 317.344 312.799 318.877 315.221C320.41 317.642 321.428 320.354 321.868 323.186C322.308 326.019 322.16 328.911 321.433 331.684C320.706 334.457 319.416 337.05 317.644 339.302C318.562 340.482 319.352 341.758 319.999 343.107L305.154 350.83L320.994 345.528C322.107 348.817 322.382 352.332 321.795 355.754C321.207 359.176 319.777 362.398 317.632 365.127C320.053 368.206 321.559 371.904 321.978 375.798C322.398 379.693 321.713 383.627 320.002 387.15C318.292 390.674 315.625 393.645 312.306 395.723C308.987 397.802 305.15 398.904 301.235 398.904C297.319 398.904 293.482 397.802 290.163 395.723C286.845 393.645 284.177 390.674 282.467 387.15C280.756 383.627 280.072 379.693 280.491 375.798C280.91 371.904 282.416 368.206 284.837 365.127C281.946 361.448 280.374 356.904 280.374 352.223C280.374 347.543 281.946 342.999 284.837 339.319V339.302Z" fill="#6C63FF"/>
<path opacity="0.1" d="M322.095 352.185C322.103 356.868 320.531 361.415 317.632 365.092C320.053 368.17 321.559 371.868 321.978 375.763C322.398 379.657 321.713 383.591 320.002 387.115C318.292 390.638 315.625 393.609 312.306 395.688C308.987 397.766 305.15 398.869 301.235 398.869C297.319 398.869 293.482 397.766 290.163 395.688C286.845 393.609 284.177 390.638 282.467 387.115C280.756 383.591 280.072 379.657 280.491 375.763C280.91 371.868 282.416 368.17 284.837 365.092C282.04 361.557 322.095 349.864 322.095 352.185Z" fill="black"/>
<path opacity="0.1" d="M48.5878 429.382C53.1849 424.784 47.8643 412.005 36.7039 400.841C25.5435 389.676 12.7696 384.354 8.17249 388.952C3.57542 393.551 8.89602 406.33 20.0564 417.494C31.2168 428.659 43.9908 433.981 48.5878 429.382Z" fill="#6C63FF"/>
<path d="M30.4034 411.035C33.8931 411.035 36.722 407.329 36.722 402.758C36.722 398.187 33.8931 394.481 30.4034 394.481C26.9138 394.481 24.0848 398.187 24.0848 402.758C24.0848 407.329 26.9138 411.035 30.4034 411.035Z" fill="#3F3D56"/>
<path d="M30.4034 400.92C33.8931 400.92 36.722 397.215 36.722 392.643C36.722 388.072 33.8931 384.367 30.4034 384.367C26.9138 384.367 24.0848 388.072 24.0848 392.643C24.0848 397.215 26.9138 400.92 30.4034 400.92Z" fill="#3F3D56"/>
<path d="M30.4034 390.806C33.8931 390.806 36.722 387.1 36.722 382.529C36.722 377.958 33.8931 374.252 30.4034 374.252C26.9138 374.252 24.0848 377.958 24.0848 382.529C24.0848 387.1 26.9138 390.806 30.4034 390.806Z" fill="#3F3D56"/>
<path d="M30.4034 380.691C33.8931 380.691 36.722 376.985 36.722 372.414C36.722 367.843 33.8931 364.138 30.4034 364.138C26.9138 364.138 24.0848 367.843 24.0848 372.414C24.0848 376.985 26.9138 380.691 30.4034 380.691Z" fill="#3F3D56"/>
<path d="M30.4034 370.576C33.8931 370.576 36.722 366.871 36.722 362.3C36.722 357.729 33.8931 354.023 30.4034 354.023C26.9138 354.023 24.0848 357.729 24.0848 362.3C24.0848 366.871 26.9138 370.576 30.4034 370.576Z" fill="#3F3D56"/>
<path d="M30.4034 360.462C33.8931 360.462 36.722 356.756 36.722 352.185C36.722 347.614 33.8931 343.908 30.4034 343.908C26.9138 343.908 24.0848 347.614 24.0848 352.185C24.0848 356.756 26.9138 360.462 30.4034 360.462Z" fill="#3F3D56"/>
<path d="M30.4034 350.347C33.8931 350.347 36.722 346.641 36.722 342.07C36.722 337.499 33.8931 333.794 30.4034 333.794C26.9138 333.794 24.0848 337.499 24.0848 342.07C24.0848 346.641 26.9138 350.347 30.4034 350.347Z" fill="#3F3D56"/>
<path d="M54.0585 272.853C54.923 271.754 55.7101 270.597 56.4139 269.389L39.8078 266.662L57.7683 266.791C59.4913 263.042 60.4321 258.98 60.5334 254.855C60.6346 250.73 59.8941 246.627 58.3572 242.798L34.2665 255.304L56.4728 238.963C54.3927 235.361 51.5932 232.226 48.2487 229.754C44.9042 227.282 41.0865 225.526 37.0336 224.595C32.9807 223.664 28.7796 223.579 24.6922 224.343C20.6048 225.108 16.7187 226.707 13.2763 229.041C9.83382 231.374 6.90885 234.392 4.68373 237.906C2.45861 241.421 0.98104 245.356 0.343165 249.466C-0.29471 253.577 -0.0792119 257.775 0.97621 261.799C2.03163 265.822 3.90435 269.585 6.4776 272.853C5.13147 274.563 3.97446 276.413 3.02681 278.373L24.5795 289.565L1.61351 281.848C0.000932679 286.62 -0.397182 291.719 0.455169 296.684C1.30752 301.649 3.38346 306.323 6.49527 310.283C2.98352 314.75 0.798948 320.114 0.191338 325.764C-0.416273 331.414 0.577591 337.121 3.0593 342.232C5.54102 347.343 9.41041 351.653 14.2251 354.668C19.0398 357.683 24.6054 359.282 30.2857 359.282C35.966 359.282 41.5316 357.683 46.3463 354.668C51.161 351.653 55.0304 347.343 57.5121 342.232C59.9938 337.121 60.9877 331.414 60.38 325.764C59.7724 320.114 57.5879 314.75 54.0761 310.283C58.2722 304.946 60.5533 298.353 60.5533 291.562C60.5533 284.772 58.2722 278.179 54.0761 272.841L54.0585 272.853Z" fill="white"/>
<path opacity="0.1" d="M4.23461e-05 291.574C-0.0113376 298.366 2.27124 304.963 6.47763 310.295C2.96588 314.761 0.781315 320.126 0.173705 325.776C-0.433906 331.426 0.559958 337.132 3.04167 342.244C5.52338 347.355 9.39278 351.665 14.2075 354.68C19.0221 357.695 24.5878 359.294 30.2681 359.294C35.9483 359.294 41.514 357.695 46.3287 354.68C51.1433 351.665 55.0127 347.355 57.4945 342.244C59.9762 337.132 60.97 331.426 60.3624 325.776C59.7548 320.126 57.5702 314.761 54.0585 310.295C58.1158 305.147 4.23461e-05 288.175 4.23461e-05 291.574Z" fill="black"/>
</g>
<defs>
<clipPath id="clip0">
<rect width="544" height="444" fill="white"/>
</clipPath>
</defs>
</svg>
